<?xml version="1.0" encoding="utf-8"?>
<!-- Generator: Adobe Illustrator 27.1.1, SVG Export Plug-In . SVG Version: 6.00 Build 0)  -->
<svg version="1.1" id="Layer_1" xmlns="http://www.w3.org/2000/svg" xmlns:xlink="http://www.w3.org/1999/xlink" x="0px" y="0px"
	 viewBox="0 0 512 512" style="enable-background:new 0 0 512 512;" xml:space="preserve">
<style type="text/css">
	.st0{fill:#FA0606;}
</style>
<path class="st0" d="M256,0C114.6,0,0,114.6,0,256s114.6,256,256,256s256-114.6,256-256S397.4,0,256,0z M244.7,395.3l-112-112
	c-4.6-4.6-5.9-11.5-3.5-17.4c2.4-5.9,8.3-9.9,14.8-9.9h64v-96c0-17.7,14.3-32,32-32h32c17.7,0,32,14.3,32,32v96h64
	c6.5,0,12.3,3.9,14.8,9.9s1.1,12.9-3.5,17.4l-112,112C261.1,401.5,250.9,401.5,244.7,395.3L244.7,395.3z"/>
</svg>
