<?xml version="1.0" encoding="utf-8"?>
<!-- Generator: Adobe Illustrator 27.1.1, SVG Export Plug-In . SVG Version: 6.00 Build 0)  -->
<svg version="1.1" id="Layer_1" xmlns="http://www.w3.org/2000/svg" xmlns:xlink="http://www.w3.org/1999/xlink" x="0px" y="0px"
	 viewBox="0 0 512 512" style="enable-background:new 0 0 512 512;" xml:space="preserve">
<style type="text/css">
	.st0{fill:#FFB91D;}
</style>
<path class="st0" d="M512,256C512,114.6,397.4,0,256,0S0,114.6,0,256s114.6,256,256,256S512,397.4,512,256z M116.7,244.7l112-112
	c4.6-4.6,11.5-5.9,17.4-3.5c5.9,2.4,9.9,8.3,9.9,14.8v64h96c17.7,0,32,14.3,32,32v32c0,17.7-14.3,32-32,32h-96v64
	c0,6.5-3.9,12.3-9.9,14.8s-12.9,1.1-17.4-3.5l-112-112C110.5,261.1,110.5,250.9,116.7,244.7L116.7,244.7z"/>
</svg>
