<?xml version="1.0" encoding="utf-8"?>
<!-- Generator: Adobe Illustrator 27.1.1, SVG Export Plug-In . SVG Version: 6.00 Build 0)  -->
<svg version="1.1" id="Layer_1" xmlns="http://www.w3.org/2000/svg" xmlns:xlink="http://www.w3.org/1999/xlink" x="0px" y="0px"
	 viewBox="0 0 512 512" style="enable-background:new 0 0 512 512;" xml:space="preserve">
<style type="text/css">
	.st0{fill:#FA0606;}
</style>
<path class="st0" d="M256,512c141.4,0,256-114.6,256-256S397.4,0,256,0S0,114.6,0,256S114.6,512,256,512z M267.3,116.7l112,112
	c4.6,4.6,5.9,11.5,3.5,17.4s-8.3,9.9-14.8,9.9h-64v96c0,17.7-14.3,32-32,32h-32c-17.7,0-32-14.3-32-32v-96h-64
	c-6.5,0-12.3-3.9-14.8-9.9s-1.1-12.9,3.5-17.4l112-112C250.9,110.5,261.1,110.5,267.3,116.7z"/>
</svg>
