<?xml version="1.0" encoding="utf-8"?>
<!-- Generator: Adobe Illustrator 27.1.1, SVG Export Plug-In . SVG Version: 6.00 Build 0)  -->
<svg version="1.1" id="Layer_1" xmlns="http://www.w3.org/2000/svg" xmlns:xlink="http://www.w3.org/1999/xlink" x="0px" y="0px"
	 viewBox="0 0 512 512" style="enable-background:new 0 0 512 512;" xml:space="preserve">
<style type="text/css">
	.st0{fill:#FFB91D;}
</style>
<path class="st0" d="M0,256c0,141.4,114.6,256,256,256s256-114.6,256-256S397.4,0,256,0S0,114.6,0,256z M395.3,267.3l-112,112
	c-4.6,4.6-11.5,5.9-17.4,3.5s-9.9-8.3-9.9-14.8v-64h-96c-17.7,0-32-14.3-32-32v-32c0-17.7,14.3-32,32-32h96v-64
	c0-6.5,3.9-12.3,9.9-14.8s12.9-1.1,17.4,3.5l112,112C401.5,250.9,401.5,261.1,395.3,267.3z"/>
</svg>
