<?xml version="1.0" encoding="utf-8"?>
<!-- Generator: Adobe Illustrator 27.2.0, SVG Export Plug-In . SVG Version: 6.00 Build 0)  -->
<svg version="1.1" id="Layer_1" xmlns="http://www.w3.org/2000/svg" xmlns:xlink="http://www.w3.org/1999/xlink" x="0px" y="0px"
	 viewBox="0 0 48 48" style="enable-background:new 0 0 48 48;" xml:space="preserve">
<style type="text/css">
	.st0{fill:#FFFFFF;}
</style>
<g>
	<g>
		<path class="st0" d="M47.9,48c-16,0-31.9,0-47.9,0C0,32,0,16.1,0,0.1c16,0,31.9,0,47.9,0C47.9,16.1,47.9,32.1,47.9,48z M34.7,20.5
			c0.1,0,0.2,0,0.3-0.1c0.1-0.3,0.2-0.5,0.2-0.8c0.8-3.6,1.4-7.2,2.3-10.7c0.5-2.1,0.7-2.2-1.6-3.8c-4.8-3.2-10.1-4.1-15.7-3.6
			C19.4,1.7,19,2,18.8,2.8c-0.3,1.5-0.6,3.1-0.9,4.6c-0.8,4.1-1.5,8.1-2.3,12.2c-0.5,2.5-1,5-1.5,7.5c-0.4,2.3-0.9,4.6-1.3,7.1
			c0.6,0,1.2,0,1.7,0c5.5,0,11.1,0,16.6,0c1.1,0,1.4,0.3,1.1,1.4c-0.4,1.6-0.6,3.2-0.9,4.9c-0.1,1-0.6,1.4-1.6,1.4
			c-4.6-0.1-9.1-0.2-13.7-0.2c-0.2,0-0.4,0-0.6,0c-2.1,0-4.1,0-6.4,0c6.2,5.9,19.6,8.3,29.3-0.3c9-8,9.8-21,4-29.2
			c-0.1,0.4-0.2,0.7-0.3,1.1c-0.2,1.2-0.4,2.4-0.7,3.6c-0.5,2.7-1,5.5-1.5,8.2c-0.3,1.9-0.7,3.7-1.1,5.6c-0.1,0.9-0.6,1.1-1.4,1.1
			c-1.3,0-2.5-0.1-3.8-0.1c-0.7,0-1.1-0.3-1.4-1c-1.5-3.6-3-7.2-4.5-10.8c-0.9-2-1.7-4.1-2.7-6.4c-0.2,0.7-0.4,1.1-0.4,1.4
			c-1.1,5.2-2.2,10.3-3.3,15.5c-0.2,0.8-0.6,1.2-1.5,1.2c-1.2,0-2.4,0-3.6,0.1c-0.8,0.1-1.1-0.2-0.9-1c0.1-0.3,0.1-0.6,0.1-0.9
			c0.8-3.7,1.6-7.5,2.3-11.2c1-5,2-10,2.9-15.1c0.2-0.8,0.5-1.3,1.4-1.2c1.5,0,2.9,0,4.4,0.1c0.4,0,1,0.5,1.1,0.9
			c1.6,4,3.2,8.1,4.8,12.2C33.3,17,34,18.8,34.7,20.5z M10.5,5.6C0.1,12.7-2,27.3,4.5,36.3C6.5,26,8.5,15.9,10.5,5.6z"/>
		<path d="M34.7,20.5c-0.7-1.7-1.4-3.5-2.1-5.2c-1.6-4.1-3.2-8.1-4.8-12.2c-0.2-0.4-0.7-0.9-1.1-0.9c-1.5-0.1-2.9-0.1-4.4-0.1
			c-0.9,0-1.2,0.4-1.4,1.2c-1,5-1.9,10-2.9,15.1c-0.8,3.7-1.6,7.5-2.3,11.2c-0.1,0.3-0.1,0.6-0.1,0.9c-0.1,0.8,0.1,1.1,0.9,1
			c1.2-0.1,2.4-0.1,3.6-0.1c0.8,0,1.3-0.4,1.5-1.2c1.1-5.2,2.2-10.3,3.3-15.5c0.1-0.4,0.2-0.7,0.4-1.4c1,2.3,1.9,4.4,2.7,6.4
			c1.5,3.6,3,7.2,4.5,10.8c0.3,0.7,0.7,1,1.4,1c1.3,0,2.5,0,3.8,0.1c0.8,0,1.2-0.2,1.4-1.1c0.3-1.9,0.7-3.7,1.1-5.6
			c0.5-2.7,1-5.5,1.5-8.2c0.2-1.2,0.4-2.4,0.7-3.6c0.1-0.3,0.2-0.6,0.3-1.1c5.8,8.2,5,21.2-4,29.2c-9.7,8.6-23.2,6.2-29.3,0.3
			c2.2,0,4.3,0,6.4,0c0.2,0,0.4,0,0.6,0c4.6,0.1,9.2,0.1,13.7,0.2c1,0,1.5-0.3,1.6-1.4c0.2-1.6,0.5-3.3,0.9-4.9
			c0.3-1.1-0.1-1.4-1.1-1.4c-5.5,0-11.1,0-16.6,0c-0.5,0-1.1,0-1.7,0c0.5-2.5,0.9-4.8,1.3-7.1c0.5-2.5,1-5,1.5-7.5
			c0.8-4.1,1.5-8.1,2.3-12.2c0.3-1.5,0.6-3.1,0.9-4.6C19,2,19.4,1.7,20.2,1.6c5.6-0.5,10.9,0.3,15.7,3.6c2.3,1.5,2.2,1.7,1.6,3.8
			c-0.9,3.5-1.5,7.1-2.3,10.7c-0.1,0.3-0.1,0.5-0.2,0.8C34.9,20.5,34.8,20.5,34.7,20.5z"/>
		<path d="M10.5,5.6c-2,10.3-4,20.4-6.1,30.7C-2,27.3,0.1,12.7,10.5,5.6z"/>
	</g>
</g>
</svg>
