<?xml version="1.0" encoding="utf-8"?>
<!-- Generator: Adobe Illustrator 27.2.0, SVG Export Plug-In . SVG Version: 6.00 Build 0)  -->
<svg version="1.1" id="Layer_1" xmlns="http://www.w3.org/2000/svg" xmlns:xlink="http://www.w3.org/1999/xlink" x="0px" y="0px"
	 viewBox="0 0 1280 1024" style="enable-background:new 0 0 1280 1024;" xml:space="preserve">
<style type="text/css">
	.st0{fill:#FFFFFF;}
</style>
<g>
	<g>
		<path class="st0" d="M741,613c-67.4,0-134.7,0-202,0c0-67.4,0-134.7,0-202c67.4,0,134.7,0,202,0C741,478.4,741,545.7,741,613z
			 M685.7,497c0.4-0.1,0.8-0.2,1.2-0.3c0.3-1.1,0.7-2.2,0.9-3.3c3.2-15.1,5.9-30.3,9.7-45.3c2.3-8.9,2.8-9.4-6.9-15.9
			c-20.2-13.6-42.6-17.1-66.3-15c-3.3,0.3-5.2,1.8-5.8,5.1c-1.2,6.5-2.6,13-3.9,19.6c-3.2,17.1-6.4,34.3-9.6,51.4
			c-2,10.6-4.2,21.2-6.2,31.8c-1.9,9.8-3.7,19.5-5.6,30c2.7,0,5,0,7.3,0c23.3,0,46.7,0.1,70-0.1c4.5,0,5.9,1.1,4.8,5.8
			c-1.6,6.8-2.7,13.7-3.7,20.6c-0.6,4.4-2.6,5.9-6.9,5.8c-19.3-0.4-38.6-0.6-57.9-0.9c-0.8,0-1.7-0.2-2.5-0.2c-8.7,0-17.5,0-26.8,0
			c26,25,82.9,35.1,123.9-1.3c38-33.8,41.6-88.7,17-123.4c-0.5,1.8-0.9,3.1-1.2,4.5c-1,5-1.8,10.1-2.8,15.2
			c-2.1,11.6-4.2,23.2-6.3,34.7c-1.5,7.8-3.2,15.6-4.5,23.5c-0.6,3.6-2.6,4.6-5.8,4.5c-5.3-0.2-10.7-0.3-16-0.2
			c-3.1,0.1-4.7-1.1-5.9-4.1c-6.1-15.3-12.5-30.4-18.8-45.6c-3.6-8.7-7.3-17.3-11.4-27.2c-0.9,3-1.5,4.5-1.9,6.1
			c-4.7,21.8-9.4,43.5-14.1,65.3c-0.7,3.4-2.7,5.2-6.2,5.2c-5,0-10-0.1-15,0.3c-3.6,0.3-4.6-1-4-4.2c0.2-1.3,0.3-2.6,0.6-4
			c3.3-15.8,6.7-31.5,9.8-47.3c4.2-21.2,8.4-42.4,12.4-63.6c0.7-3.6,2.3-5.4,5.9-5.3c6.2,0.2,12.4,0,18.5,0.6
			c1.8,0.2,4.2,2.1,4.9,3.8c7,17.1,13.6,34.3,20.4,51.4C679.7,482.3,682.7,489.6,685.7,497z M583.4,434
			c-44.2,29.8-52.8,91.7-25.6,129.7C566.4,520.3,574.8,477.6,583.4,434z"/>
		<path d="M685.7,497c-3-7.3-6-14.6-8.9-22c-6.8-17.1-13.4-34.4-20.4-51.4c-0.7-1.7-3.1-3.6-4.9-3.8c-6.1-0.6-12.3-0.4-18.5-0.6
			c-3.7-0.1-5.3,1.7-5.9,5.3c-4,21.2-8.2,42.4-12.4,63.6c-3.2,15.8-6.6,31.5-9.8,47.3c-0.3,1.3-0.4,2.6-0.6,4
			c-0.6,3.3,0.4,4.5,4,4.2c5-0.4,10-0.3,15-0.3c3.6,0,5.5-1.7,6.2-5.2c4.7-21.8,9.3-43.5,14.1-65.3c0.3-1.6,1-3.1,1.9-6.1
			c4.2,9.9,7.8,18.5,11.4,27.2c6.3,15.2,12.7,30.3,18.8,45.6c1.2,3,2.8,4.2,5.9,4.1c5.3-0.1,10.7,0,16,0.2c3.3,0.1,5.2-0.9,5.8-4.5
			c1.3-7.9,3-15.7,4.5-23.5c2.1-11.6,4.2-23.1,6.3-34.7c0.9-5.1,1.8-10.1,2.8-15.2c0.3-1.4,0.7-2.7,1.2-4.5
			c24.6,34.7,21.1,89.5-17,123.4c-41,36.4-97.8,26.4-123.9,1.3c9.4,0,18.1,0,26.8,0c0.8,0,1.7,0.2,2.5,0.2
			c19.3,0.3,38.6,0.5,57.9,0.9c4.3,0.1,6.4-1.4,6.9-5.8c0.9-6.9,2.1-13.8,3.7-20.6c1.1-4.6-0.3-5.8-4.8-5.8
			c-23.3,0.1-46.7,0.1-70,0.1c-2.3,0-4.6,0-7.3,0c2-10.5,3.8-20.3,5.6-30c2-10.6,4.2-21.2,6.2-31.8c3.2-17.1,6.4-34.3,9.6-51.4
			c1.2-6.5,2.6-13,3.9-19.6c0.6-3.3,2.5-4.8,5.8-5.1c23.7-2.1,46.1,1.4,66.3,15c9.7,6.5,9.1,7,6.9,15.9c-3.8,15-6.5,30.2-9.7,45.3
			c-0.2,1.1-0.6,2.2-0.9,3.3C686.4,496.8,686.1,496.9,685.7,497z"/>
		<path d="M583.4,434c-8.6,43.6-17,86.3-25.6,129.7C530.7,525.8,539.3,463.8,583.4,434z"/>
	</g>
</g>
</svg>
