<?xml version="1.0" encoding="utf-8"?>
<!-- Generator: Adobe Illustrator 27.2.0, SVG Export Plug-In . SVG Version: 6.00 Build 0)  -->
<svg version="1.1" id="Layer_1" xmlns="http://www.w3.org/2000/svg" xmlns:xlink="http://www.w3.org/1999/xlink" x="0px" y="0px"
	 viewBox="0 0 256 256" style="enable-background:new 0 0 256 256;" xml:space="preserve">
<g>
	<g>
		<path d="M191.3,107.1c-3.9-9.7-7.9-19.3-11.7-29c-8.9-22.6-17.7-45.3-26.8-67.8c-0.9-2.2-4.1-4.8-6.4-5
			c-8.1-0.8-16.2-0.6-24.4-0.8c-4.8-0.1-6.9,2.2-7.8,6.9c-5.3,28-10.8,55.9-16.4,83.8c-4.2,20.8-8.6,41.6-13,62.4
			c-0.4,1.7-0.5,3.5-0.8,5.2c-0.8,4.3,0.6,6,5.3,5.6c6.6-0.5,13.2-0.4,19.8-0.4c4.7,0,7.3-2.3,8.2-6.8c6.1-28.7,12.3-57.4,18.5-86.1
			c0.5-2.1,1.3-4.1,2.5-8c5.5,13.1,10.3,24.4,15.1,35.8c8.3,20,16.7,40,24.8,60.1c1.6,3.9,3.6,5.5,7.8,5.4c7-0.1,14.1,0,21.1,0.3
			c4.3,0.1,6.9-1.1,7.7-5.9c1.7-10.4,4-20.7,5.9-31c2.8-15.3,5.6-30.5,8.3-45.8c1.2-6.7,2.4-13.3,3.6-20c0.3-1.8,0.9-3.6,1.6-5.9
			c32.5,45.7,27.8,118.1-22.4,162.6c-54,48-129,34.8-163.3,1.7c12.4,0,23.9,0,35.4,0c1.1,0,2.2,0.2,3.3,0.2
			c25.5,0.4,50.9,0.7,76.4,1.2c5.7,0.1,8.4-1.8,9.2-7.6c1.2-9.1,2.7-18.3,4.8-27.2c1.4-6.1-0.4-7.6-6.3-7.6
			c-30.8,0.2-61.5,0.1-92.3,0.1c-3,0-6,0-9.6,0c2.6-13.8,5-26.7,7.4-39.6c2.7-14,5.5-28,8.2-42c4.3-22.6,8.4-45.2,12.7-67.8
			c1.6-8.6,3.5-17.2,5.1-25.8c0.8-4.4,3.3-6.4,7.6-6.7c31.3-2.8,60.8,1.8,87.4,19.8c12.8,8.6,12.1,9.2,9.1,21
			c-5,19.7-8.6,39.8-12.8,59.7c-0.3,1.5-0.8,2.9-1.2,4.4C192.3,106.8,191.8,107,191.3,107.1z"/>
		<path d="M56.5,24.1c-11.3,57.5-22.4,113.8-33.7,171C-13.1,145.1-1.7,63.4,56.5,24.1z"/>
	</g>
</g>
</svg>
